<svg xmlns="http://www.w3.org/2000/svg" width="1640" height="1160" viewBox="0 0 1640 1160" role="img" aria-labelledby="title desc">
  <title id="title">VRC-AI-Bot Codex Multi-Agent Spec Roadmap</title>
  <desc id="desc">Specification-driven roadmap for parallelizing VRC-AI-Bot implementation with Codex multi-agents. The map shows serial gates, safe two-lane parallel phases, and ownership rules for shared files.</desc>
  <defs>
    <style>
      .bg { fill: #f4f1ea; }
      .frame { fill: #fffdf9; stroke: #2f2b26; stroke-width: 2; rx: 18; ry: 18; }
      .lead { fill: #dbe8df; stroke: #2b5241; stroke-width: 2; rx: 18; ry: 18; }
      .phase { fill: #ece1d2; stroke: #3b3128; stroke-width: 2; rx: 18; ry: 18; }
      .parallelA { fill: #f4d9b7; stroke: #87541b; stroke-width: 2; rx: 14; ry: 14; }
      .parallelB { fill: #d8e6f4; stroke: #28537d; stroke-width: 2; rx: 14; ry: 14; }
      .serial { fill: #f0ebe3; stroke: #4c443b; stroke-width: 2; rx: 14; ry: 14; }
      .gate { fill: #e5efdf; stroke: #46633f; stroke-width: 2; rx: 14; ry: 14; }
      .note { fill: #fff4d4; stroke: #7c6733; stroke-width: 2; rx: 14; ry: 14; }
      .legend { fill: #f2ede5; stroke: #4b433a; stroke-width: 1.5; rx: 14; ry: 14; }
      .title { font: 700 30px 'Yu Gothic UI', 'Segoe UI', sans-serif; fill: #1f1a15; }
      .subtitle { font: 400 15px 'Yu Gothic UI', 'Segoe UI', sans-serif; fill: #4b433a; }
      .heading { font: 700 18px 'Yu Gothic UI', 'Segoe UI', sans-serif; fill: #231d17; }
      .label { font: 700 16px 'Yu Gothic UI', 'Segoe UI', sans-serif; fill: #231d17; }
      .body { font: 400 13px 'Yu Gothic UI', 'Segoe UI', sans-serif; fill: #2f2923; }
      .mono { font: 400 12px 'Consolas', 'Courier New', monospace; fill: #3f3932; }
      .small { font: 400 12px 'Yu Gothic UI', 'Segoe UI', sans-serif; fill: #4b433a; }
      .arrow { stroke: #3b3128; stroke-width: 2.5; fill: none; marker-end: url(#arrowHead); }
      .dashed { stroke-dasharray: 8 7; }
    </style>
    <marker id="arrowHead" markerWidth="10" markerHeight="10" refX="8" refY="5" orient="auto">
      <path d="M0,0 L10,5 L0,10 z" fill="#3b3128" />
    </marker>
  </defs>

  <rect class="bg" x="0" y="0" width="1640" height="1160" />

  <text class="title" x="48" y="56">VRC-AI-Bot: Spec-Driven Codex Multi-Agent Roadmap</text>
  <text class="subtitle" x="48" y="82">Based on requirements + implementation task table. Parallelism is intentionally capped at two lanes where the spec and file ownership stay disjoint.</text>

  <rect class="lead" x="48" y="112" width="1544" height="118" />
  <text class="heading" x="72" y="146">Lead Agent / Integrator owns orchestration and shared seams</text>
  <text class="body" x="72" y="172">Reads the spec, spawns agents, collects summaries, merges after each gate, and keeps shared seams under explicit single-owner control.</text>
  <text class="mono" x="72" y="198">Lead-only seams: implementation/src/app/bot-app.ts | implementation/src/harness/harness-runner.ts | implementation/src/harness/contracts.ts</text>
  <text class="mono" x="72" y="220">Single-owner hubs: implementation/src/storage/database.ts | implementation/src/domain/types.ts | generated codex types</text>

  <rect class="note" x="48" y="252" width="418" height="118" />
  <text class="label" x="72" y="282">Codex Multi-Agent Rule</text>
  <text class="body" x="72" y="308">Use explorer agents for analysis and worker agents for bounded implementation.</text>
  <text class="body" x="72" y="330">Keep heavy integration, regression, and conflict resolution with the lead.</text>
  <text class="body" x="72" y="352">Do not chase maximum concurrency. The safe default is two lanes.</text>

  <rect class="note" x="490" y="252" width="510" height="118" />
  <text class="label" x="514" y="282">Ownership Split</text>
  <text class="body" x="514" y="308">Lane A tends to own storage / knowledge / override / retry leaf modules.</text>
  <text class="body" x="514" y="330">Lane B tends to own adapters / Playwright / chat helpers / moderation leaf modules.</text>
  <text class="body" x="514" y="352">If a task needs reply routing, type-shape changes, or final response assembly, route it back through the lead or the single owner.</text>

  <rect class="note" x="1024" y="252" width="568" height="118" />
  <text class="label" x="1048" y="282">Execution Reading of the Spec</text>
  <text class="body" x="1048" y="308">Serial gates lock contracts, queues, and policy first. Parallel phases only start after those foundations are fixed.</text>
  <text class="body" x="1048" y="330">The table below mirrors the implementation task dependencies, not just the current repo state.</text>
  <text class="body" x="1048" y="352">Current repo likely re-enters around T08, but this SVG is written as the full roadmap.</text>

  <rect class="phase" x="48" y="406" width="1544" height="660" />
  <text class="heading" x="72" y="438">Roadmap</text>

  <rect class="serial" x="72" y="470" width="180" height="94" />
  <text class="label" x="92" y="500">Phase 0</text>
  <text class="body" x="92" y="526">Ops preconditions</text>
  <text class="body" x="92" y="548">OPS.01/02, SEC.02/03, NET.01</text>

  <rect class="serial" x="296" y="470" width="180" height="94" />
  <text class="label" x="316" y="500">Phase 1</text>
  <text class="body" x="316" y="526">T00 Contracts</text>
  <text class="body" x="316" y="548">enum, schema, validator</text>

  <rect class="parallelA" x="520" y="450" width="200" height="94" />
  <text class="label" x="540" y="480">Phase 2A</text>
  <text class="body" x="540" y="506">T01 Storage</text>
  <text class="body" x="540" y="528">SQLite, repo, FTS5</text>
  <text class="mono" x="540" y="548">src/storage/*</text>

  <rect class="parallelB" x="520" y="560" width="200" height="94" />
  <text class="label" x="540" y="590">Phase 2B</text>
  <text class="body" x="540" y="616">T06 Playwright base</text>
  <text class="body" x="540" y="638">public URL fetch path</text>
  <text class="mono" x="540" y="658">src/playwright/*</text>

  <rect class="serial" x="764" y="470" width="180" height="94" />
  <text class="label" x="784" y="500">Phase 3</text>
  <text class="body" x="784" y="526">T02 Config</text>
  <text class="body" x="784" y="548">env + watch locations</text>

  <rect class="serial" x="988" y="470" width="180" height="94" />
  <text class="label" x="1008" y="500">Phase 4</text>
  <text class="body" x="1008" y="526">T03 Intake</text>
  <text class="body" x="1008" y="548">catch-up + queue</text>

  <rect class="serial" x="1212" y="470" width="180" height="94" />
  <text class="label" x="1232" y="500">Phase 5</text>
  <text class="body" x="1232" y="526">T04 Policy</text>
  <text class="body" x="1232" y="548">role + scope + packet</text>

  <rect class="parallelA" x="72" y="702" width="200" height="94" />
  <text class="label" x="92" y="732">Phase 6A</text>
  <text class="body" x="92" y="758">T05 Codex adapter</text>
  <text class="body" x="92" y="780">thread + schema bridge</text>
  <text class="mono" x="92" y="800">src/codex/*</text>

  <rect class="parallelB" x="72" y="812" width="200" height="94" />
  <text class="label" x="92" y="842">Phase 6B</text>
  <text class="body" x="92" y="868">T12 Sanction</text>
  <text class="body" x="92" y="890">violation + soft-block</text>
  <text class="mono" x="92" y="910">src/policy/sanction*</text>

  <rect class="parallelA" x="316" y="702" width="200" height="94" />
  <text class="label" x="336" y="732">Phase 7A</text>
  <text class="body" x="336" y="758">T07 URL ingest</text>
  <text class="body" x="336" y="780">thread create + persist</text>
  <text class="mono" x="336" y="800">src/knowledge/* ingest</text>

  <rect class="parallelB" x="316" y="812" width="200" height="94" />
  <text class="label" x="336" y="842">Phase 7B</text>
  <text class="body" x="336" y="868">T13 Override</text>
  <text class="body" x="336" y="890">TTL + audit + cleanup</text>
  <text class="mono" x="336" y="910">src/override/*</text>

  <rect class="parallelA" x="560" y="702" width="200" height="94" />
  <text class="label" x="580" y="732">Phase 8A</text>
  <text class="body" x="580" y="758">T08 Retrieval</text>
  <text class="body" x="580" y="780">search + hydration</text>
  <text class="mono" x="580" y="800">src/knowledge/* retrieval</text>

  <rect class="parallelB" x="560" y="812" width="200" height="94" />
  <text class="label" x="580" y="842">Phase 8B</text>
  <text class="body" x="580" y="868">T10 Chat</text>
  <text class="body" x="580" y="890">chat path + mixed branch</text>
  <text class="mono" x="580" y="910">src/app/chat-helpers*</text>

  <rect class="serial" x="804" y="756" width="180" height="94" />
  <text class="label" x="824" y="786">Phase 9</text>
  <text class="body" x="824" y="812">T09 Thread Q&amp;A</text>
  <text class="body" x="824" y="834">knowledge thread answers</text>

  <rect class="serial" x="1028" y="756" width="180" height="94" />
  <text class="label" x="1048" y="786">Phase 10</text>
  <text class="body" x="1048" y="812">T11 Output guard</text>
  <text class="body" x="1048" y="834">scope + source checks</text>

  <rect class="serial" x="1252" y="756" width="180" height="94" />
  <text class="label" x="1272" y="786">Phase 11</text>
  <text class="body" x="1272" y="812">T14 Failure + retry</text>
  <text class="body" x="1272" y="834">retry scheduler + notify</text>

  <rect class="gate" x="1456" y="756" width="112" height="94" />
  <text class="label" x="1478" y="786">Phase 12</text>
  <text class="body" x="1478" y="812">T15 Finish</text>
  <text class="body" x="1478" y="834">regression + docs</text>

  <path class="arrow" d="M252 517 C270 517, 278 517, 296 517" />
  <path class="arrow" d="M476 517 C496 517, 500 497, 520 497" />
  <path class="arrow dashed" d="M476 517 C496 517, 500 607, 520 607" />
  <path class="arrow" d="M720 497 C740 497, 744 517, 764 517" />
  <path class="arrow" d="M944 517 C964 517, 968 517, 988 517" />
  <path class="arrow" d="M1168 517 C1188 517, 1192 517, 1212 517" />

  <path class="arrow" d="M1392 517 C1418 517, 1428 747, 72 747" />
  <path class="arrow dashed" d="M1392 517 C1420 517, 1430 857, 72 857" />

  <path class="arrow" d="M272 747 C292 747, 296 747, 316 747" />
  <path class="arrow dashed" d="M272 857 C292 857, 296 857, 316 857" />

  <path class="arrow" d="M516 747 C536 747, 540 747, 560 747" />
  <path class="arrow dashed" d="M516 747 C540 747, 544 857, 560 857" />

  <path class="arrow" d="M760 747 C780 747, 784 803, 804 803" />
  <path class="arrow dashed" d="M760 857 C780 857, 784 803, 804 803" />

  <path class="arrow" d="M984 803 C1004 803, 1008 803, 1028 803" />
  <path class="arrow" d="M1208 803 C1228 803, 1232 803, 1252 803" />
  <path class="arrow" d="M1432 803 C1444 803, 1446 803, 1456 803" />

  <rect class="legend" x="72" y="948" width="620" height="86" />
  <text class="label" x="96" y="978">Do not parallelize these</text>
  <text class="body" x="96" y="1004">T00 with any downstream work. T02-T04 remain serial. T08 and T09 are serial. T12 before T13. T13 before T14. T11 and T14 both touch final reply paths, so keep them separate.</text>

  <rect class="legend" x="716" y="948" width="440" height="86" />
  <text class="label" x="740" y="978">Safe two-lane phases</text>
  <text class="body" x="740" y="1004">T01+T06, T05+T12, T07+T13, T08+T10. These are the main Codex multi-agent spawn points.</text>

  <rect class="legend" x="1180" y="948" width="388" height="86" />
  <text class="label" x="1204" y="978">Current repo note</text>
  <text class="body" x="1204" y="1004">If resuming from the current codebase, start from Phase 8A / T08 and keep the same ownership rules.</text>

  <text class="small" x="48" y="1112">Intent of this SVG: give the lead agent a deterministic spawn order and write-scope policy. It is not a free-form team graph; it is an execution plan aligned to the spec.</text>
</svg>
